<?xml version="1.0" encoding="UTF-8" standalone="no"?>
<svg width="30px" height="30px" viewBox="0 0 30 30" version="1.1" xmlns="http://www.w3.org/2000/svg" xmlns:xlink="http://www.w3.org/1999/xlink">
    <!-- Generator: Sketch 3.7.2 (28276) - http://www.bohemiancoding.com/sketch -->
    <title>close</title>
    <desc>Created with Sketch.</desc>
    <defs></defs>
    <g id="Page-1" stroke="none" stroke-width="1" fill="none" fill-rule="evenodd">
        <g id="close2" transform="translate(-1.000000, -1.000000)" fill="#7F7F7F">
            <g id="close">
                <g id="Page-1">
                    <g id="Desktop-HD-Copy">
                        <path d="M1.328041,0.964959 C1.174495,0.979902 1.043749,1.082976 0.993376,1.228792 C0.943004,1.374607 0.982249,1.536406 1.09383,1.642938 L15.405347,15.966782 L1.09383,30.278299 C0.993753,30.379402 0.955486,30.526359 0.993543,30.663432 C1.031601,30.800505 1.140154,30.906698 1.27803,30.941734 C1.415907,30.976771 1.561987,30.935284 1.660867,30.833009 L15.972384,16.521492 L30.283901,30.833009 C30.437361,30.988041 30.687212,30.990051 30.843145,30.837507 C30.999079,30.684963 31.002561,30.435128 30.850938,30.278299 L16.539421,15.966782 L30.850938,1.642938 C30.969723,1.528497 31.004771,1.352237 30.938802,1.201059 C30.872834,1.049882 30.719776,0.955704 30.555092,0.964959 C30.452059,0.969028 30.354714,1.013276 30.283901,1.088228 L15.972384,15.399745 L1.660867,1.088228 C1.575716,0.996735 1.452246,0.951005 1.328041,0.964959 L1.328041,0.964959 L1.328041,0.964959 Z" id="close"></path>
                    </g>
                </g>
            </g>
        </g>
    </g>
</svg>